<svg width="40" height="40" viewBox="0 0 40 40" fill="none" xmlns="http://www.w3.org/2000/svg">
<path d="M30 25V30H25V33.3333H30V38.3333H33.3333V33.3333H38.3333V30H33.3333V25H30ZM22.1667 35H8.33333C6.5 35 5 33.5 5 31.6667V8.33333C5 6.5 6.5 5 8.33333 5H31.6667C33.5 5 35 6.5 35 8.33333V22.1667C34 21.8333 32.8333 21.6667 31.6667 21.6667C29.8333 21.6667 28 22.1667 26.5 23.1667L24.1667 20L18.3333 27.5L14.1667 22.5L8.33333 30H21.8333C21.6667 30.5 21.6667 31.1667 21.6667 31.6667C21.6667 32.8333 21.8333 34 22.1667 35Z" fill="#CCB8A8"/>
</svg>
