<svg width="42" height="42" viewBox="0 0 42 42" fill="none" xmlns="http://www.w3.org/2000/svg">
<rect x="2" y="2" width="38" height="38" stroke="#873328" stroke-width="2"/>
<path d="M13.125 30C12.4288 30 11.7611 29.7234 11.2688 29.2312C10.7766 28.7389 10.5 28.0712 10.5 27.375V23.625C10.5 23.3266 10.6185 23.0405 10.8295 22.8295C11.0405 22.6185 11.3266 22.5 11.625 22.5C11.9234 22.5 12.2095 22.6185 12.4205 22.8295C12.6315 23.0405 12.75 23.3266 12.75 23.625V27.375C12.75 27.582 12.918 27.75 13.125 27.75H28.875C28.9745 27.75 29.0698 27.7105 29.1402 27.6402C29.2105 27.5698 29.25 27.4745 29.25 27.375V23.625C29.25 23.3266 29.3685 23.0405 29.5795 22.8295C29.7905 22.6185 30.0766 22.5 30.375 22.5C30.6734 22.5 30.9595 22.6185 31.1705 22.8295C31.3815 23.0405 31.5 23.3266 31.5 23.625V27.375C31.5 28.0712 31.2234 28.7389 30.7312 29.2312C30.2389 29.7234 29.5712 30 28.875 30H13.125Z" fill="#873328"/>
<path d="M19.875 20.5335V12C19.875 11.7016 19.9935 11.4155 20.2045 11.2045C20.4155 10.9935 20.7016 10.875 21 10.875C21.2983 10.875 21.5845 10.9935 21.7955 11.2045C22.0064 11.4155 22.125 11.7016 22.125 12V20.5335L25.08 17.58C25.1844 17.4756 25.3083 17.3928 25.4447 17.3363C25.5811 17.2798 25.7273 17.2507 25.875 17.2507C26.0226 17.2507 26.1688 17.2798 26.3052 17.3363C26.4416 17.3928 26.5656 17.4756 26.67 17.58C26.7744 17.6844 26.8572 17.8083 26.9137 17.9447C26.9702 18.0812 26.9993 18.2274 26.9993 18.375C26.9993 18.5226 26.9702 18.6688 26.9137 18.8053C26.8572 18.9417 26.7744 19.0656 26.67 19.17L21.795 24.045C21.6906 24.1495 21.5667 24.2324 21.4303 24.289C21.2939 24.3455 21.1476 24.3746 21 24.3746C20.8523 24.3746 20.7061 24.3455 20.5697 24.289C20.4332 24.2324 20.3093 24.1495 20.205 24.045L15.33 19.17C15.2256 19.0656 15.1428 18.9417 15.0863 18.8053C15.0298 18.6688 15.0007 18.5226 15.0007 18.375C15.0007 18.2274 15.0298 18.0812 15.0863 17.9447C15.1428 17.8083 15.2256 17.6844 15.33 17.58C15.4344 17.4756 15.5583 17.3928 15.6947 17.3363C15.8311 17.2798 15.9773 17.2507 16.125 17.2507C16.2726 17.2507 16.4188 17.2798 16.5552 17.3363C16.6916 17.3928 16.8156 17.4756 16.92 17.58L19.875 20.5335Z" fill="#873328"/>
<path d="M12 0H0V12H2L2.25429 10.4742C2.95675 6.25951 6.25951 2.95675 10.4742 2.25429L12 2V0Z" fill="#873328"/>
<path d="M30 0H42V12H40L39.7457 10.4742C39.0433 6.25951 35.7405 2.95675 31.5258 2.25429L30 2V0Z" fill="#873328"/>
<path d="M12 42H0V30H2L2.25429 31.5258C2.95675 35.7405 6.25951 39.0433 10.4742 39.7457L12 40V42Z" fill="#873328"/>
<path d="M30 42H42V30H40L39.7457 31.5258C39.0433 35.7405 35.7405 39.0433 31.5258 39.7457L30 40V42Z" fill="#873328"/>
</svg>
