<svg width="42" height="42" viewBox="0 0 42 42" fill="none" xmlns="http://www.w3.org/2000/svg">
<rect x="2" y="2" width="38" height="38" stroke="#873328" stroke-width="2"/>
<path d="M18 24L24 18M20 15L20.463 14.464C21.4008 13.5263 22.6727 12.9996 23.9989 12.9997C25.325 12.9998 26.5968 13.5267 27.5345 14.4645C28.4722 15.4023 28.9989 16.6742 28.9988 18.0004C28.9987 19.3265 28.4718 20.5983 27.534 21.536L27 22M22 27L21.603 27.534C20.6543 28.4722 19.3738 28.9984 18.0395 28.9984C16.7052 28.9984 15.4248 28.4722 14.476 27.534C14.0084 27.0716 13.6371 26.521 13.3837 25.9141C13.1303 25.3073 12.9999 24.6562 12.9999 23.9985C12.9999 23.3409 13.1303 22.6897 13.3837 22.0829C13.6371 21.476 14.0084 20.9254 14.476 20.463L15 20" stroke="#873328" stroke-width="2" stroke-linecap="round" stroke-linejoin="round"/>
<path d="M12 0H0V12H2L2.25429 10.4742C2.95675 6.25951 6.25951 2.95675 10.4742 2.25429L12 2V0Z" fill="#873328"/>
<path d="M30 0H42V12H40L39.7457 10.4742C39.0433 6.25951 35.7405 2.95675 31.5258 2.25429L30 2V0Z" fill="#873328"/>
<path d="M12 42H0V30H2L2.25429 31.5258C2.95675 35.7405 6.25951 39.0433 10.4742 39.7457L12 40V42Z" fill="#873328"/>
<path d="M30 42H42V30H40L39.7457 31.5258C39.0433 35.7405 35.7405 39.0433 31.5258 39.7457L30 40V42Z" fill="#873328"/>
</svg>
