<svg width="36" height="36" viewBox="0 0 36 36" fill="none" xmlns="http://www.w3.org/2000/svg">
<path d="M12 0H0V12H2L2.25429 10.4742C2.95675 6.25951 6.25951 2.95675 10.4742 2.25429L12 2V0Z" fill="#873328"/>
<path d="M12 36H0V24H2L2.25429 25.5258C2.95675 29.7405 6.25951 33.0433 10.4742 33.7457L12 34V36Z" fill="#873328"/>
<path d="M24 0H36V12H34L33.7457 10.4742C33.0433 6.25951 29.7405 2.95675 25.5258 2.25429L24 2V0Z" fill="#873328"/>
<path d="M24 36H36V24H34L33.7457 25.5258C33.0433 29.7405 29.7405 33.0433 25.5258 33.7457L24 34V36Z" fill="#873328"/>
</svg>
